<svg width="20" height="20" viewBox="0 0 20 20" fill="none" xmlns="http://www.w3.org/2000/svg">
<g id="Icon/add">
<path id="Vector" fill-rule="evenodd" clip-rule="evenodd" d="M4.16659 9.16634H9.16659V4.16634C9.15742 3.61051 9.43492 3.33301 9.99992 3.33301C10.5649 3.33301 10.8424 3.61051 10.8333 4.16634V9.16634H15.8333C16.3891 9.16634 16.6666 9.44384 16.6666 9.99967C16.6666 10.5555 16.3891 10.833 15.8333 10.833H10.8333V15.833C10.8458 16.3888 10.5683 16.6663 9.99992 16.6663C9.43159 16.6663 9.15409 16.3888 9.16659 15.833V10.833H4.16659C3.61075 10.833 3.33325 10.5563 3.33325 9.99967C3.33325 9.44301 3.61075 9.16634 4.16659 9.16634Z" fill="white"/>
</g>
</svg>
