<svg width="24" height="25" viewBox="0 0 24 25" fill="none" xmlns="http://www.w3.org/2000/svg">
<g id="Icon/key">
<path id="Vector" d="M11.4824 20.6725C12.363 19.7896 12.9122 18.6299 13.0375 17.3891C13.1627 16.1484 12.8562 14.9024 12.1698 13.8612L13.7788 12.2521L14.5443 13.0176C14.9671 13.4404 15.6526 13.4404 16.0753 13.0176V13.0176C16.4981 12.5949 16.4981 11.9094 16.0753 11.4867L15.3098 10.7212L16.8408 9.19018L18.3718 10.7212C18.7946 11.1439 19.48 11.1439 19.9028 10.7212V10.7212C20.3255 10.2984 20.3255 9.61295 19.9028 9.19018L18.3718 7.6592L19.1373 6.89371C19.5601 6.47094 19.5601 5.78549 19.1373 5.36272V5.36272C18.7145 4.93995 18.0291 4.93995 17.6063 5.36272L10.6388 12.3302C9.59765 11.6438 8.35165 11.3373 7.11087 11.4625C5.8701 11.5878 4.71045 12.137 3.82746 13.0176C1.717 15.1281 1.717 18.5621 3.82746 20.6725C5.93792 22.783 9.37191 22.783 11.4824 20.6725ZM5.35844 14.5486C6.62456 13.2825 8.68527 13.2825 9.95139 14.5486C11.2175 15.8147 11.2175 17.8754 9.95139 19.1416C8.68527 20.4077 6.62456 20.4077 5.35844 19.1416C4.09232 17.8754 4.09232 15.8147 5.35844 14.5486Z" fill="#2853E3"/>
</g>
</svg>
