<svg width="24" height="24" viewBox="0 0 24 24" fill="none" xmlns="http://www.w3.org/2000/svg">
<g id="Icon/login out">
<path id="Vector" fill-rule="evenodd" clip-rule="evenodd" d="M16.5862 13.0001L9.00021 13.0001C8.33321 13.0001 8.00021 12.6671 8.00021 12.0001C8.00021 11.3331 8.33321 11.0001 9.00021 11.0001L16.5862 11.0001L13.2932 7.70713C13.1977 7.61488 13.1215 7.50454 13.0691 7.38253C13.0167 7.26053 12.9891 7.12931 12.988 6.99653C12.9868 6.86375 13.0121 6.73207 13.0624 6.60918C13.1127 6.48628 13.1869 6.37463 13.2808 6.28074C13.3747 6.18684 13.4864 6.11259 13.6093 6.06231C13.7322 6.01203 13.8638 5.98673 13.9966 5.98788C14.1294 5.98903 14.2606 6.01662 14.3826 6.06903C14.5046 6.12144 14.615 6.19762 14.7072 6.29313L19.7072 11.2931C19.8947 11.4807 20 11.735 20 12.0001C20 12.2653 19.8947 12.5196 19.7072 12.7071L14.7062 17.7081C14.5176 17.8903 14.265 17.9911 14.0028 17.9888C13.7406 17.9865 13.4898 17.8814 13.3044 17.6959C13.119 17.5105 13.0138 17.2597 13.0115 16.9975C13.0093 16.7353 13.1101 16.4827 13.2922 16.2941L16.5862 13.0001ZM5.00021 4.00013C5.46198 4.00151 7.67163 4.00098 8.98772 4.00052C9.53667 4.00033 9.98109 4.44528 9.98109 4.99424V4.99424C9.98109 5.54301 9.53622 5.98788 8.98745 5.98788L6.00021 5.98788L6.00021 12.0001L6.00021 17.9888L8.97543 17.9888C9.53084 17.9888 9.98109 18.4391 9.98109 18.9945V18.9945C9.98109 19.5499 9.53127 20.0001 8.97586 20.0001C7.65896 20.0001 5.46229 20.0001 4.99921 20.0001C4.32721 20.0001 3.99421 19.6671 4.00021 19.0001L4.00021 5.00213C4.00021 4.33213 4.33421 3.99813 5.00021 4.00013Z" fill="#5F6279"/>
</g>
</svg>
