<?xml version="1.0" standalone="no"?><!DOCTYPE svg PUBLIC "-//W3C//DTD SVG 1.1//EN" "http://www.w3.org/Graphics/SVG/1.1/DTD/svg11.dtd"><svg t="1705099249629" class="icon" viewBox="0 0 1024 1024" version="1.1" xmlns="http://www.w3.org/2000/svg" p-id="44691" width="24" height="24" xmlns:xlink="http://www.w3.org/1999/xlink"><path d="M320 170.688C320 147.136 339.136 128 362.688 128H448c23.552 0 42.688 19.136 42.688 42.688V256A42.688 42.688 0 0 1 448 298.688H362.688A42.688 42.688 0 0 1 320 256V170.688z m0 298.624c0-23.552 19.136-42.624 42.688-42.624H448c23.552 0 42.688 19.072 42.688 42.624v85.376A42.688 42.688 0 0 1 448 597.312H362.688A42.688 42.688 0 0 1 320 554.688V469.312zM320 768c0-23.552 19.136-42.688 42.688-42.688H448c23.552 0 42.688 19.136 42.688 42.688v85.312A42.688 42.688 0 0 1 448 896H362.688A42.688 42.688 0 0 1 320 853.312V768z m256-597.312C576 147.136 595.136 128 618.688 128H704c23.552 0 42.688 19.136 42.688 42.688V256a42.688 42.688 0 0 1-42.688 42.688H618.688A42.688 42.688 0 0 1 576 256V170.688z m0 298.624c0-23.552 19.136-42.624 42.688-42.624H704c23.552 0 42.688 19.072 42.688 42.624v85.376a42.688 42.688 0 0 1-42.688 42.624H618.688A42.688 42.688 0 0 1 576 554.688V469.312zM576 768c0-23.552 19.136-42.688 42.688-42.688H704c23.552 0 42.688 19.136 42.688 42.688v85.312A42.688 42.688 0 0 1 704 896H618.688A42.688 42.688 0 0 1 576 853.312V768z" fill="#ec962f" p-id="44692"></path></svg>