<svg width="16" height="16" viewBox="0 0 16 16" fill="none" xmlns="http://www.w3.org/2000/svg">
<g id="Icon/arrow_down">
<path id="Vector" fill-rule="evenodd" clip-rule="evenodd" d="M10.8626 5.52921C10.9241 5.46554 10.9976 5.41475 11.079 5.37981C11.1603 5.34487 11.2478 5.32648 11.3363 5.32571C11.4248 5.32494 11.5126 5.34181 11.5945 5.37533C11.6765 5.40885 11.7509 5.45835 11.8135 5.52095C11.8761 5.58354 11.9256 5.65798 11.9591 5.73991C11.9926 5.82184 12.0095 5.90962 12.0087 5.99814C12.008 6.08666 11.9896 6.17414 11.9546 6.25548C11.9197 6.33681 11.8689 6.41038 11.8052 6.47188L8.47189 9.80521C8.34687 9.93019 8.17733 10.0004 8.00056 10.0004C7.82378 10.0004 7.65424 9.93019 7.52922 9.80521L4.19522 6.47188C4.07013 6.34687 3.99982 6.17729 3.99976 6.00044C3.99972 5.91288 4.01694 5.82616 4.05042 5.74525C4.0839 5.66434 4.13299 5.59082 4.19489 5.52888C4.25679 5.46694 4.33028 5.41779 4.41117 5.38425C4.49205 5.35072 4.57876 5.33344 4.66632 5.33341C4.84317 5.33334 5.0128 5.40354 5.13789 5.52854L8.00056 8.39121L10.8626 5.52921Z" fill="#9D9FB0"/>
</g>
</svg>
