<svg width="20" height="20" viewBox="0 0 20 20" fill="none" xmlns="http://www.w3.org/2000/svg">
<g id="Icon/edit">
<path id="Vector" fill-rule="evenodd" clip-rule="evenodd" d="M14.1708 2.29561C14.9608 1.51228 15.7458 1.51228 16.5275 2.29478C17.7 3.46895 16.5258 2.29145 17.7008 3.46811C18.4841 4.25228 18.4841 5.03728 17.6983 5.82228L15.34 8.18061L11.8133 4.65311L14.1708 2.29478V2.29561ZM15.3466 3.47061L14.1675 4.64978L15.3433 5.82561L16.5225 4.64728L15.3466 3.47145V3.47061ZM10.7741 5.67561L14.3016 9.20311L5.90664 17.5973L2.70581 18.2506C2.57761 18.2748 2.44584 18.2729 2.3184 18.245C2.19096 18.2171 2.07046 18.1637 1.96414 18.0881C1.74247 17.9331 1.65581 17.6581 1.70414 17.2606L2.37914 14.0706L10.775 5.67478L10.7741 5.67561ZM10.7741 8.04228L4.14914 14.6689L3.55747 16.4356L5.32414 15.8448L11.9508 9.21895L10.775 8.04311L10.7741 8.04228Z" fill="#2853E3"/>
</g>
</svg>
