<svg width="24" height="24" viewBox="0 0 24 24" fill="none" xmlns="http://www.w3.org/2000/svg">
<g id="Icon/search">
<path id="Vector" fill-rule="evenodd" clip-rule="evenodd" d="M14.6051 13.1941L19.6051 18.1921C19.7873 18.3807 19.8881 18.6333 19.8858 18.8955C19.8835 19.1577 19.7784 19.4085 19.593 19.5939C19.4076 19.7793 19.1567 19.8845 18.8945 19.8868C18.6323 19.8891 18.3797 19.7883 18.1911 19.6061L13.1931 14.6061C11.7759 15.6663 10.0097 16.1503 8.25006 15.9607C6.49037 15.7711 4.86783 14.9219 3.70902 13.5842C2.55021 12.2464 1.94117 10.5193 2.00448 8.75057C2.0678 6.98183 2.79876 5.30272 4.05026 4.05123C5.30175 2.79974 6.98085 2.06877 8.74959 2.00546C10.5183 1.94215 12.2454 2.55119 13.5832 3.71C14.9209 4.8688 15.7701 6.49134 15.9597 8.25103C16.1493 10.0107 15.6653 11.7769 14.6051 13.1941ZM9.00014 14.0001C10.3262 14.0001 11.598 13.4733 12.5357 12.5357C13.4734 11.598 14.0001 10.3262 14.0001 9.00012C14.0001 7.67404 13.4734 6.40227 12.5357 5.46459C11.598 4.5269 10.3262 4.00012 9.00014 4.00012C7.67406 4.00012 6.40229 4.5269 5.46461 5.46459C4.52693 6.40227 4.00014 7.67404 4.00014 9.00012C4.00014 10.3262 4.52693 11.598 5.46461 12.5357C6.40229 13.4733 7.67406 14.0001 9.00014 14.0001Z" fill="#5F6279"/>
</g>
</svg>
