<svg width="20" height="20" viewBox="0 0 20 20" fill="none" xmlns="http://www.w3.org/2000/svg">
<g id="Icon/delete">
<path id="Vector" fill-rule="evenodd" clip-rule="evenodd" d="M7.50004 3.33317C7.50004 2.22234 8.05587 1.6665 9.16671 1.6665H10.8334C11.9442 1.6665 12.5 2.22234 12.5 3.33317H15C16.1109 3.33317 16.6667 3.889 16.6667 4.99984V6.6665C16.6667 7.4515 16.3892 7.959 15.8334 8.18984V16.6665C15.8334 17.7773 15.2775 18.3332 14.1667 18.3332H5.83337C4.72004 18.3332 4.16421 17.7773 4.16671 16.6665V8.18984C3.61087 7.95984 3.33337 7.45234 3.33337 6.6665V4.99984C3.33337 3.889 3.88837 3.33317 4.99921 3.33317H7.50004ZM5.83337 8.33317V16.6665H14.1667V8.33317H5.83337ZM5.00004 4.99984V6.6665H15V4.99984H5.00004ZM7.50004 14.1665C7.50004 13.619 7.77754 13.3415 8.33337 13.3332C8.71745 13.3274 11.6624 13.3332 11.6624 13.3332C11.6624 13.3332 12.5 13.3332 12.5 14.1665C12.5 14.9998 11.6624 14.9998 11.6624 14.9998C11.6624 14.9998 8.71745 14.9998 8.33337 14.9998C7.77754 14.9998 7.50004 14.7223 7.50004 14.1665Z" fill="#F04E4E"/>
</g>
</svg>
