<svg width="24" height="25" viewBox="0 0 24 25" fill="none" xmlns="http://www.w3.org/2000/svg">
<g id="Icon/add">
<path id="Vector" fill-rule="evenodd" clip-rule="evenodd" d="M5 11.6938H11V5.69385C10.989 5.02685 11.322 4.69385 12 4.69385C12.678 4.69385 13.011 5.02685 13 5.69385V11.6938H19C19.667 11.6938 20 12.0268 20 12.6938C20 13.3608 19.667 13.6938 19 13.6938H13V19.6938C13.015 20.3608 12.682 20.6938 12 20.6938C11.318 20.6938 10.985 20.3608 11 19.6938V13.6938H5C4.333 13.6938 4 13.3618 4 12.6938C4 12.0258 4.333 11.6938 5 11.6938Z" fill="#9D9FB0"/>
</g>
</svg>
